<?xml version="1.0" encoding="utf-8"?>
<!-- Generator: Adobe Illustrator 21.1.0, SVG Export Plug-In . SVG Version: 6.00 Build 0)  -->
<svg version="1.1" id="Capa_1" xmlns="http://www.w3.org/2000/svg" xmlns:xlink="http://www.w3.org/1999/xlink" x="0px" y="0px"
	 viewBox="0 0 320 320" style="enable-background:new 0 0 320 320;" xml:space="preserve">
<style type="text/css">
	.st0{fill:#72B256;}
	.st1{fill:#F3D365;}
	.st2{fill:#FFFFFF;}
	.st3{fill:#D25D5B;}
	.st4{fill:#5D6772;}
	.st5{opacity:0.1;}
	.st6{fill:#7ABDEF;}
</style>
<g id="credit_cards">
	<rect x="0" class="st0" width="320" height="320"/>
	<g>
		<g>
			<path class="st1" d="M224,164.4c0,5.3-4.4,9.6-9.8,9.6h-84.5c-5.4,0-9.7-4.3-9.7-9.6v-44.8c0-5.3,4.4-9.6,9.7-9.6h84.5
				c5.4,0,9.8,4.3,9.8,9.6V164.4z"/>
			<rect x="134.4" y="150" class="st2" width="64" height="9.6"/>
			<circle class="st3" cx="211.2" cy="122.8" r="6"/>
			<circle class="st4" cx="201.6" cy="122.8" r="6"/>
			<path class="st5" d="M198.3,118h-78.1c-0.1,0.5-0.2,1.1-0.2,1.6v44.8c0,5.3,4.4,9.6,9.7,9.6h78.1c0.1-0.5,0.2-1.1,0.2-1.6v-44.8
				C208,122.3,203.6,118,198.3,118z"/>
		</g>
		<g>
			<path class="st6" d="M200,180.4c0,5.3-4.4,9.6-9.7,9.6h-84.5c-5.4,0-9.8-4.3-9.8-9.6v-44.8c0-5.3,4.4-9.6,9.8-9.6h84.5
				c5.4,0,9.7,4.3,9.7,9.6V180.4z"/>
			<rect x="96" y="134" class="st4" width="104" height="12"/>
			<rect x="104" y="150.8" class="st2" width="52" height="8"/>
			<rect x="167.5" y="171.2" class="st4" width="26" height="12"/>
		</g>
	</g>
</g>
</svg>
