<?xml version="1.0" encoding="utf-8"?>
<!-- Generator: Adobe Illustrator 21.1.0, SVG Export Plug-In . SVG Version: 6.00 Build 0)  -->
<svg version="1.1" id="Capa_1" xmlns="http://www.w3.org/2000/svg" xmlns:xlink="http://www.w3.org/1999/xlink" x="0px" y="0px"
	 viewBox="0 0 320 320" style="enable-background:new 0 0 320 320;" xml:space="preserve">
<style type="text/css">
	.st0{fill:#D3A05C;}
	.st1{fill:#5D6772;}
	.st2{fill:#F6F6F6;}
	.st3{fill:#AEB3B7;}
	.st4{fill:#DA8328;}
	.st5{fill:#F3D365;}
</style>
<g id="bill__x2F__invoice__x2F__receip">
	<rect x="0" class="st0" width="320" height="320"/>
	<g>
		<g>
			<path class="st1" d="M220,104v-4c0-6.6-5.4-12-12-12h-12v16H220z"/>
			<path class="st2" d="M128,88c-6.6,0-12,5.4-12,12v12v80v24h68c6.6,0,12-5.4,12-12v-12v-80v-12c0-6.6,5.4-12,12-12H128z"/>
			<path class="st1" d="M172,204c0,6.6,5.4,12,12,12h-72c-6.6,0-12-5.4-12-12v-12h72V204z"/>
			<g>
				<rect x="124" y="114" class="st3" width="56" height="4"/>
				<rect x="124" y="132" class="st3" width="56" height="4"/>
				<rect x="124" y="152" class="st3" width="56" height="4"/>
				<rect x="124" y="172" class="st3" width="32" height="4"/>
			</g>
		</g>
		<g>
			<rect x="212" y="128" class="st4" width="16" height="72"/>
			<rect x="220" y="128" class="st5" width="8" height="72"/>
			<rect x="216" y="120" class="st1" width="8" height="8"/>
			<polygon class="st1" points="212,200 228,200 220,216 			"/>
			<g>
				<rect x="204" y="136" class="st1" width="24" height="4"/>
				<rect x="204" y="136" class="st1" width="4" height="24"/>
			</g>
		</g>
	</g>
</g>
</svg>
