<?xml version="1.0" encoding="utf-8"?>
<!-- Generator: Adobe Illustrator 21.1.0, SVG Export Plug-In . SVG Version: 6.00 Build 0)  -->
<svg version="1.1" id="Capa_1" xmlns="http://www.w3.org/2000/svg" xmlns:xlink="http://www.w3.org/1999/xlink" x="0px" y="0px"
	 viewBox="0 0 320 320" style="enable-background:new 0 0 320 320;" xml:space="preserve">
<style type="text/css">
	.st0{fill:#F3D365;}
	.st1{fill:#7ABDEF;}
	.st2{fill:#5D6772;}
	.st3{fill:#E6E6E6;}
	.st4{fill:none;stroke:#5D6772;stroke-width:4;stroke-linecap:round;stroke-miterlimit:10;}
	.st5{fill:#D25D5B;}
	.st6{fill:none;stroke:#7ABDEF;stroke-width:4;stroke-linecap:round;stroke-miterlimit:10;}
</style>
<g id="shipping_delivery_truck">
	<rect x="0" y="0" class="st0" width="320" height="320"/>
	<g>
		<path class="st1" d="M217,181.5l-0.9-9.6c0-7.7-4.4-7.7-6.5-7.7h-24.8v17.3H217z"/>
		<path class="st2" d="M201,164.4l-2-12.8c-0.6-4-3.8-4.5-6.1-4.5H168v17.3H201z"/>
		<path class="st3" d="M197.3,161.5l-1.3-8.5c-0.4-2.6-2.6-3-4.1-3h-16.5v11.5H197.3z"/>
		<path class="st2" d="M185,181.6v-52.3c0-2.5-2-4.5-4.5-4.5h-71.2c-2.5,0-4.5,2-4.5,4.5v52.3H185z"/>
		<line class="st4" x1="101" y1="181.6" x2="217" y2="181.6"/>
		<ellipse class="st5" cx="144.5" cy="152.2" rx="12.8" ry="12.8"/>
		<g>
			<line class="st6" x1="93" y1="165.8" x2="127.2" y2="165.8"/>
			<line class="st6" x1="101.8" y1="153.8" x2="136" y2="153.8"/>
			<line class="st6" x1="94.8" y1="141.8" x2="129" y2="141.8"/>
		</g>
		
			<ellipse transform="matrix(0.9279 -0.3728 0.3728 0.9279 -48.1379 92.5815)" class="st5" cx="215.3" cy="170.7" rx="1.5" ry="2.1"/>
		<g>
			<path class="st3" d="M186.8,184.6c0-6.6,5.8-12,12.9-12c7.1,0,12.9,5.4,12.9,12H186.8z"/>
			<circle class="st2" cx="199.8" cy="185.8" r="9"/>
			<circle class="st3" cx="199.8" cy="186" r="5"/>
		</g>
		<g>
			<path class="st3" d="M115.2,185c0-6.6,5.8-12,12.9-12c7.1,0,12.9,5.4,12.9,12H115.2z"/>
			<circle class="st2" cx="128.1" cy="186.3" r="9"/>
			<circle class="st3" cx="128.1" cy="186.4" r="5"/>
		</g>
		<line class="st4" x1="192" y1="169" x2="197" y2="169"/>
	</g>
</g>
</svg>
