<?xml version="1.0" encoding="utf-8"?>
<!-- Generator: Adobe Illustrator 21.1.0, SVG Export Plug-In . SVG Version: 6.00 Build 0)  -->
<svg version="1.1" id="Capa_1" xmlns="http://www.w3.org/2000/svg" xmlns:xlink="http://www.w3.org/1999/xlink" x="0px" y="0px"
	 viewBox="0 0 61.3 61.3" style="enable-background:new 0 0 61.3 61.3;" xml:space="preserve">
<style type="text/css">
	.st0{fill:#3E5C9A;}
	.st1{fill:#FFFFFF;}
</style>
<g id="XMLID_1631_">
	<path id="XMLID_1633_" class="st0" d="M45.8,54.6H15.3c-4.7,0-8.5-3.8-8.5-8.5V15.6c0-4.7,3.8-8.5,8.5-8.5h30.5
		c4.7,0,8.5,3.8,8.5,8.5v30.5C54.2,50.8,50.4,54.6,45.8,54.6z"/>
	<path id="XMLID_1632_" class="st1" d="M26.9,45.2h5.8V30.7h4l0.4-4.8h-4.5c0,0,0-1.8,0-2.8c0-1.1,0.2-1.6,1.3-1.6
		c0.9,0,3.1,0,3.1,0v-5c0,0-3.3,0-4,0c-4.3,0-6.2,1.9-6.2,5.5c0,3.2,0,3.9,0,3.9h-3v4.9h3V45.2z"/>
</g>
</svg>
