<?xml version="1.0" encoding="utf-8"?>
<!-- Generator: Adobe Illustrator 21.1.0, SVG Export Plug-In . SVG Version: 6.00 Build 0)  -->
<svg version="1.1" id="Capa_1" xmlns="http://www.w3.org/2000/svg" xmlns:xlink="http://www.w3.org/1999/xlink" x="0px" y="0px"
	 viewBox="0 0 61.3 61.3" style="enable-background:new 0 0 61.3 61.3;" xml:space="preserve">
<style type="text/css">
	.st0{fill:#DF4B38;}
	.st1{fill:#FFFFFF;}
</style>
<g id="XMLID_1614_">
	<path id="XMLID_1618_" class="st0" d="M46.1,54.4H15.7c-4.7,0-8.5-3.8-8.5-8.5V15.4C7.2,10.8,11,7,15.7,7h30.5
		c4.7,0,8.5,3.8,8.5,8.5v30.5C54.6,50.6,50.8,54.4,46.1,54.4z"/>
	<g id="XMLID_1615_">
		<path id="XMLID_1617_" class="st1" d="M33.9,30.1h-9.6l0,2.7h6.5c-0.8,3.3-3.1,5.4-6.3,5.4c-4.2,0-7.5-3.4-7.5-7.5
			s3.4-7.5,7.5-7.5c2,0,3.8,0.8,5.1,2l2.1-1.8c-1.9-1.8-4.4-3-7.2-3c-5.7,0-10.3,4.6-10.3,10.3S18.8,41,24.5,41
			c5.5,0,9.4-4.2,9.4-9.9L33.9,30.1z"/>
		<polygon id="XMLID_1616_" class="st1" points="47.6,30.2 43.7,30.2 43.7,26.2 41.2,26.2 41.2,30.2 37.2,30.2 37.2,32.7 41.2,32.7 
			41.2,36.6 43.7,36.6 43.7,32.7 47.6,32.7 		"/>
	</g>
</g>
</svg>
