<?xml version="1.0" encoding="utf-8"?>
<!-- Generator: Adobe Illustrator 21.1.0, SVG Export Plug-In . SVG Version: 6.00 Build 0)  -->
<svg version="1.1" id="Capa_1" xmlns="http://www.w3.org/2000/svg" xmlns:xlink="http://www.w3.org/1999/xlink" x="0px" y="0px"
	 viewBox="0 0 20.1 21.3" style="enable-background:new 0 0 20.1 21.3;" xml:space="preserve">
<style type="text/css">
	.st0{fill:#1A789E;}
	.st1{fill:#1D7A9F;}
	.st2{fill:#1C799F;}
	.st3{fill:#72ABC2;}
	.st4{fill:#FDFDFD;}
	.st5{fill:#287EA2;}
	.st6{fill:#81B4C9;}
	.st7{fill:#74ACC0;}
	.st8{fill:#74ABC2;}
</style>
<path class="st0" d="M12.5,2.3c2.8,0.5,5.9,3.6,6.5,6.5c0.7,3.2,0.1,6-2,8.5c-0.7,0.8-0.1,1.6,0.3,2.3c0.5,0.9,0.3,1.4-0.7,1.7
	c-0.7,0.2-1-0.2-1.2-0.7c-0.5-1.1-1.2-1.2-2.3-0.8c-2,0.8-4.1,0.9-6,0c-1.3-0.6-1.9-0.1-2.4,0.9c-0.3,0.5-0.5,0.8-1.1,0.6
	c-0.8-0.3-1.2-0.7-0.7-1.6c0.6-1.1,0.7-1.9-0.2-3.1C-0.9,11.8,0.8,4.9,6.7,2.4c0.2-0.1,0.5-0.1,0.7-0.1C9.1,1.8,10.8,1.6,12.5,2.3z"
	/>
<path class="st1" d="M6.7,1C6.4,1.7,5.6,1.6,5.1,1.9c-1.6,1-2.9,2.1-3.9,3.7c-0.4,0.6-0.6,0.7-0.9,0c-0.7-1.7-0.1-3.8,1.5-4.9
	C3.1-0.3,5.4-0.1,6.7,1z"/>
<path class="st2" d="M13.1,1.1c1.7-1.3,3.3-1.4,4.9-0.6c1.5,0.8,2.3,2.3,2,4.1c0,0.2,0,0.4-0.1,0.5c-0.3,0.3-0.2,0.9-0.6,1
	c-0.6,0.2-0.5-0.5-0.7-0.8C17.3,3.4,15.5,2,13.1,1.1z"/>
<path class="st3" d="M12.5,2.3c-1.7-0.3-3.4-0.3-5.1,0C7.9,1.6,8.7,2,9.3,1.7C9.4,1.4,8.6,1,9.2,0.6c0.4-0.3,0.9-0.2,1.4-0.1
	C11.2,0.5,11.1,1,11,1.4c-0.1,0.5,0.2,0.4,0.4,0.5C11.8,1.9,12.3,1.7,12.5,2.3z"/>
<path class="st4" d="M10,18.2c-4,0-7.1-3.1-7.1-7.1C2.9,7.1,6.1,4,10,4c3.9,0,7.2,3.2,7.2,7.1C17.2,15,14,18.2,10,18.2z"/>
<path class="st5" d="M14.3,11.1c-0.9,0.4-1.6,0.2-2.2,0.2c-0.2,0-0.4,0-0.6,0c-0.7-0.1-1.3,0.9-1.9,0.2C9,11,9.8,10.3,9.7,9.6
	c-0.1-0.9,0-1.7,0-2.6c0-0.3-0.1-0.7,0.4-0.7c0.4,0,0.3,0.4,0.3,0.7c0,0.8,0.1,1.7,0,2.5c-0.1,1.1,0.5,1.4,1.4,1.4
	C12.5,10.9,13.3,10.5,14.3,11.1z"/>
<path class="st6" d="M16,11.5c-0.3-0.1-0.6-0.1-0.5-0.4c0-0.3,0.3-0.5,0.6-0.5c0.2,0,0.5,0.3,0.5,0.4C16.7,11.4,16.3,11.4,16,11.5z"
	/>
<path class="st7" d="M4.5,11c0,0.4-0.2,0.4-0.5,0.4c-0.2,0-0.5-0.1-0.5-0.3c0-0.2,0.3-0.4,0.5-0.4C4.2,10.6,4.4,10.8,4.5,11z"/>
<path class="st8" d="M10.4,5c0,0.2,0.1,0.5-0.3,0.5C9.8,5.5,9.6,5.3,9.6,5c0-0.3,0.1-0.5,0.4-0.5C10.3,4.5,10.3,4.8,10.4,5z"/>
</svg>
