<?xml version="1.0" encoding="utf-8"?>
<!-- Generator: Adobe Illustrator 21.1.0, SVG Export Plug-In . SVG Version: 6.00 Build 0)  -->
<svg version="1.1" id="Capa_1" xmlns="http://www.w3.org/2000/svg" xmlns:xlink="http://www.w3.org/1999/xlink" x="0px" y="0px"
	 viewBox="0 0 61.3 61.3" style="enable-background:new 0 0 61.3 61.3;" xml:space="preserve">
<style type="text/css">
	.st0{fill:url(#XMLID_2_);}
	.st1{fill:#FFFFFF;}
</style>
<g id="XMLID_1621_">
	<radialGradient id="XMLID_2_" cx="5.6276" cy="54.7122" r="87.6878" gradientUnits="userSpaceOnUse">
		<stop  offset="0" style="stop-color:#F5EC53"/>
		<stop  offset="0.2412" style="stop-color:#E48244"/>
		<stop  offset="0.3974" style="stop-color:#D15767"/>
		<stop  offset="0.4888" style="stop-color:#C84278"/>
		<stop  offset="1" style="stop-color:#192CFA"/>
	</radialGradient>
	<path id="XMLID_1630_" class="st0" d="M45.8,54.6H15.3c-4.7,0-8.5-3.8-8.5-8.5V15.6c0-4.7,3.8-8.5,8.5-8.5h30.5
		c4.7,0,8.5,3.8,8.5,8.5v30.5C54.2,50.8,50.4,54.6,45.8,54.6z"/>
	<g id="XMLID_1622_">
		<path id="XMLID_1627_" class="st1" d="M30.5,20.2c3.5,0,3.9,0,5.3,0.1c1.3,0.1,2,0.3,2.4,0.4c0.6,0.2,1,0.5,1.5,1
			c0.5,0.5,0.7,0.9,1,1.5c0.2,0.5,0.4,1.1,0.4,2.4c0.1,1.4,0.1,1.8,0.1,5.3c0,3.5,0,3.9-0.1,5.3c-0.1,1.3-0.3,2-0.4,2.4
			c-0.2,0.6-0.5,1-1,1.5c-0.5,0.5-0.9,0.7-1.5,1c-0.5,0.2-1.1,0.4-2.4,0.4c-1.4,0.1-1.8,0.1-5.3,0.1s-3.9,0-5.3-0.1
			c-1.3-0.1-2-0.3-2.4-0.4c-0.6-0.2-1-0.5-1.5-1c-0.5-0.5-0.7-0.9-1-1.5c-0.2-0.5-0.4-1.1-0.4-2.4c-0.1-1.4-0.1-1.8-0.1-5.3
			c0-3.5,0-3.9,0.1-5.3c0.1-1.3,0.3-2,0.4-2.4c0.2-0.6,0.5-1,1-1.5c0.5-0.5,0.9-0.7,1.5-1c0.5-0.2,1.1-0.4,2.4-0.4
			C26.6,20.2,27.1,20.2,30.5,20.2 M30.5,17.8c-3.5,0-4,0-5.4,0.1c-1.4,0.1-2.3,0.3-3.2,0.6c-0.9,0.3-1.6,0.8-2.3,1.5
			c-0.7,0.7-1.2,1.4-1.5,2.3c-0.3,0.8-0.5,1.8-0.6,3.2c-0.1,1.4-0.1,1.8-0.1,5.4c0,3.5,0,4,0.1,5.4c0.1,1.4,0.3,2.3,0.6,3.2
			c0.3,0.9,0.8,1.6,1.5,2.3c0.7,0.7,1.4,1.2,2.3,1.5c0.8,0.3,1.8,0.5,3.2,0.6c1.4,0.1,1.8,0.1,5.4,0.1s4,0,5.4-0.1
			c1.4-0.1,2.3-0.3,3.2-0.6c0.9-0.3,1.6-0.8,2.3-1.5c0.7-0.7,1.2-1.4,1.5-2.3c0.3-0.8,0.5-1.8,0.6-3.2c0.1-1.4,0.1-1.8,0.1-5.4
			c0-3.5,0-4-0.1-5.4c-0.1-1.4-0.3-2.3-0.6-3.2c-0.3-0.9-0.8-1.6-1.5-2.3c-0.7-0.7-1.4-1.2-2.3-1.5c-0.8-0.3-1.8-0.5-3.2-0.6
			C34.5,17.9,34.1,17.8,30.5,17.8"/>
		<path id="XMLID_1624_" class="st1" d="M30.5,24.2c-3.7,0-6.7,3-6.7,6.7s3,6.7,6.7,6.7c3.7,0,6.7-3,6.7-6.7S34.2,24.2,30.5,24.2
			 M30.5,35.2c-2.4,0-4.3-1.9-4.3-4.3c0-2.4,1.9-4.3,4.3-4.3s4.3,1.9,4.3,4.3C34.9,33.2,32.9,35.2,30.5,35.2"/>
		<path id="XMLID_1623_" class="st1" d="M39,23.9c0,0.9-0.7,1.6-1.6,1.6c-0.9,0-1.6-0.7-1.6-1.6c0-0.9,0.7-1.6,1.6-1.6
			C38.3,22.3,39,23,39,23.9"/>
	</g>
</g>
</svg>
