<?xml version="1.0" encoding="utf-8"?>
<!-- Generator: Adobe Illustrator 21.1.0, SVG Export Plug-In . SVG Version: 6.00 Build 0)  -->
<svg version="1.1" id="Capa_1" xmlns="http://www.w3.org/2000/svg" xmlns:xlink="http://www.w3.org/1999/xlink" x="0px" y="0px"
	 viewBox="0 0 16.7 22.4" style="enable-background:new 0 0 16.7 22.4;" xml:space="preserve">
<style type="text/css">
	.st0{fill:#1B799E;}
	.st1{fill:#FDFDFD;}
</style>
<g>
	<path class="st0" d="M16.7,8c0,3.7-1.5,6.4-3.4,8.9C12,18.7,10.6,20.5,9,22c-0.9,0.8-1.5,0.5-2-0.2c-1.1-1.4-2.2-2.9-3.2-4.4
		c-1.4-2.1-2.7-4.3-3.4-6.8c-1.1-4.1,0.9-8.5,5-10c4.1-1.6,8.5,0.1,10.5,4C16.4,5.8,16.6,7,16.7,8z"/>
	<path class="st1" d="M8.3,13.5c-3,0-5.1-2.1-5.1-5.1c0-3,2.5-5.3,5.2-5.2c2.9,0.1,5.1,2.2,5.1,5.1C13.5,11.4,11.4,13.5,8.3,13.5z"
		/>
</g>
</svg>
