<?xml version="1.0" encoding="utf-8"?>
<!-- Generator: Adobe Illustrator 21.1.0, SVG Export Plug-In . SVG Version: 6.00 Build 0)  -->
<svg version="1.1" id="Capa_1" xmlns="http://www.w3.org/2000/svg" xmlns:xlink="http://www.w3.org/1999/xlink" x="0px" y="0px"
	 viewBox="0 0 21.5 14.5" style="enable-background:new 0 0 21.5 14.5;" xml:space="preserve">
<style type="text/css">
	.st0{fill:#1A789E;}
	.st1{fill:#FCFCFC;}
	.st2{fill:#FBFBFC;}
	.st3{fill:#F9FBFB;}
	.st4{fill:#FAFBFC;}
</style>
<g>
	<path class="st0" d="M10.7,14.5c-3.1,0-6.2,0-9.2,0c-1.1,0-1.5-0.4-1.5-1.4C0,9.2,0,5.3,0,1.4C0,0.5,0.3,0,1.4,0
		c6.2,0,12.5,0,18.7,0c1.1,0,1.4,0.4,1.4,1.4c0,3.9,0,7.8,0,11.6c0,1.1-0.4,1.5-1.5,1.4C16.9,14.4,13.8,14.5,10.7,14.5z"/>
	<path class="st1" d="M2.3,1.1c5.7,0,11.1,0,16.8,0c-1.9,1.6-3.6,3.1-5.3,4.6c-0.7,0.6-1.5,1.2-2.2,1.9C11,8,10.6,8,10,7.5
		C7.5,5.4,5,3.3,2.3,1.1z"/>
	<path class="st2" d="M1.8,13.1C4,11.2,5.9,9.6,7.9,7.9C8.2,7.7,8.5,7.7,8.7,8C8.8,8.1,8.9,8.2,9,8.3c2,1.5,1.4,1.5,3.4-0.1
		c0.7-0.5,1-0.5,1.6,0c1.8,1.6,3.6,3,5.7,4.8C13.6,13.1,7.9,13.1,1.8,13.1z"/>
	<path class="st3" d="M1.4,7.1c0-1.4,0-2.9,0-4.3c0-0.2-0.1-0.5,0.2-0.6c0.2,0,0.3,0.1,0.5,0.2c1.6,1.4,3.3,2.8,4.9,4.1
		c0.5,0.4,0.4,0.8,0,1.1c-1.7,1.4-3.3,2.8-5,4.2c-0.6,0.5-0.6,0.1-0.6-0.4C1.4,10,1.4,8.5,1.4,7.1z"/>
	<path class="st4" d="M20.4,12.3c-1.7-1.4-3.3-2.7-4.8-4c-1.5-1.2-1.5-1.3,0.1-2.5c1.3-1.1,2.7-2.2,4-3.4c0.3-0.3,0.7-0.6,0.7,0.2
		C20.4,5.7,20.4,8.9,20.4,12.3z"/>
</g>
</svg>
