<?xml version="1.0" encoding="utf-8"?>
<!-- Generator: Adobe Illustrator 21.1.0, SVG Export Plug-In . SVG Version: 6.00 Build 0)  -->
<svg version="1.1" id="Capa_1" xmlns="http://www.w3.org/2000/svg" xmlns:xlink="http://www.w3.org/1999/xlink" x="0px" y="0px"
	 viewBox="0 0 61.3 61.3" style="enable-background:new 0 0 61.3 61.3;" xml:space="preserve">
<style type="text/css">
	.st0{fill:#CD2129;}
	.st1{fill:#FFFFFF;}
</style>
<g id="XMLID_1583_">
	<path id="XMLID_1585_" class="st0" d="M46.1,54.3H15.7c-4.7,0-8.5-3.8-8.5-8.5V15.4c0-4.7,3.8-8.5,8.5-8.5h30.5
		c4.7,0,8.5,3.8,8.5,8.5v30.5C54.6,50.5,50.8,54.3,46.1,54.3z"/>
	<path id="XMLID_1584_" class="st1" d="M23.3,32.8c0.4,0.2,0.7,0,0.8-0.4c0.1-0.3,0.3-1,0.3-1.3c0.1-0.4,0.1-0.5-0.2-0.9
		c-0.7-0.8-1.1-1.8-1.1-3.2c0-4.1,3.1-7.7,8-7.7c4.3,0,6.7,2.7,6.7,6.2c0,4.7-2.1,8.6-5.1,8.6c-1.7,0-3-1.4-2.6-3.1
		c0.5-2,1.4-4.3,1.4-5.7c0-1.3-0.7-2.4-2.2-2.4c-1.7,0-3.1,1.8-3.1,4.2c0,1.5,0.5,2.6,0.5,2.6S25,37,24.7,38.4
		c-0.6,2.6-0.1,5.8,0,6.1c0,0.2,0.3,0.2,0.4,0.1c0.2-0.2,2.2-2.8,2.9-5.3c0.2-0.7,1.1-4.4,1.1-4.4c0.6,1.1,2.2,2,4,2
		c5.2,0,8.7-4.7,8.7-11.1c0-4.8-4.1-9.3-10.2-9.3C23.9,16.5,20,22,20,26.6C20,29.4,21,31.9,23.3,32.8z"/>
</g>
</svg>
