<?xml version="1.0" encoding="utf-8"?>
<!-- Generator: Adobe Illustrator 21.1.0, SVG Export Plug-In . SVG Version: 6.00 Build 0)  -->
<svg version="1.1" id="Capa_1" xmlns="http://www.w3.org/2000/svg" xmlns:xlink="http://www.w3.org/1999/xlink" x="0px" y="0px"
	 viewBox="0 0 320 320" style="enable-background:new 0 0 320 320;" xml:space="preserve">
<style type="text/css">
	.st0{fill:#668ED9;}
	.st1{fill:#98A1A7;}
	.st2{fill:#6B6B6B;}
	.st3{fill:#D25D5B;}
	.st4{fill:#538ED2;}
	.st5{fill:#F1CD65;}
	.st6{fill:none;stroke:#98A1A7;stroke-width:4;stroke-linecap:round;stroke-miterlimit:10;}
	.st7{fill:#7FC47C;}
	.st8{fill:none;stroke:#FFFFFF;stroke-width:4;stroke-linecap:round;stroke-miterlimit:10;}
</style>
<g id="shopping_cart">
	<rect y="-0.2" class="st0" width="320" height="320"/>
	<g>
		<g>
			<rect x="155" y="120" class="st1" width="32" height="24.5"/>
			<rect x="177" y="120" class="st2" width="10" height="24.5"/>
			<polygon class="st3" points="155,120.1 167,112.9 187,120.3 177,129.2 			"/>
		</g>
		<g>
			<polygon class="st4" points="147.4,157.3 120.9,139.3 134.7,119 161.1,137.1 			"/>
			<polygon class="st2" points="147.4,157.3 139.1,151.7 152.9,131.4 161.1,137.1 			"/>
			<polygon class="st5" points="134.6,119 148.6,119.9 161,137.3 147.7,139 			"/>
		</g>
		<g>
			<polyline class="st6" points="85,121.2 103,121.2 109,137.4 			"/>
			<g>
				<g>
					<ellipse class="st6" cx="133" cy="209.1" rx="8" ry="8.1"/>
					<ellipse class="st6" cx="173" cy="209.1" rx="8" ry="8.1"/>
					<line class="st6" x1="173" y1="192.8" x2="173" y2="200.8"/>
					<line class="st6" x1="133" y1="192.8" x2="133" y2="200.8"/>
				</g>
			</g>
			<path class="st7" d="M193.6,184.8c-4,7.1-7.4,12-14.1,12h-54.4c-9.9,0-8.9,0.1-12.1-12l-8.1-40.1c-2.7-12.1-2.7-11.8,6-11.8h92.7
				c6.7,0,11.7,2.6,8,11.8L193.6,184.8z"/>
			<line class="st8" x1="121" y1="148.5" x2="189" y2="148.5"/>
			<line class="st8" x1="123" y1="162.6" x2="187" y2="162.6"/>
			<line class="st8" x1="125" y1="178.8" x2="183" y2="178.8"/>
		</g>
	</g>
</g>
</svg>
