<?xml version="1.0" encoding="utf-8"?>
<!-- Generator: Adobe Illustrator 21.1.0, SVG Export Plug-In . SVG Version: 6.00 Build 0)  -->
<svg version="1.1" id="Capa_1" xmlns="http://www.w3.org/2000/svg" xmlns:xlink="http://www.w3.org/1999/xlink" x="0px" y="0px"
	 viewBox="0 0 19.6 19.8" style="enable-background:new 0 0 19.6 19.8;" xml:space="preserve">
<style type="text/css">
	.st0{fill:#1B799F;}
</style>
<path class="st0" d="M14.8,19.8C11.6,19.7,9,18,6.6,16c-2.8-2.3-5-5.1-6.2-8.6c-0.9-2.8-0.3-5.1,1.8-6.8c1.4-1.1,2.9-0.7,3.4,1
	c0.3,1.1,0.6,2.2,1,3.3c0.3,0.7,0,1.2-0.4,1.7C4.8,8,4.8,8.1,5.8,9.8c1.4,2.3,3.1,4.1,5.5,5.2c0.7,0.3,1.1,0.2,1.6-0.3
	c2.1-2,2.1-2,4.5-0.4c0.3,0.2,0.6,0.3,0.8,0.4c1.6,0.9,1.7,3,0.2,4.1C17.4,19.6,16.2,19.9,14.8,19.8z"/>
</svg>
