<?xml version="1.0" encoding="utf-8"?>
<!-- Generator: Adobe Illustrator 21.1.0, SVG Export Plug-In . SVG Version: 6.00 Build 0)  -->
<svg version="1.1" id="Capa_1" xmlns="http://www.w3.org/2000/svg" xmlns:xlink="http://www.w3.org/1999/xlink" x="0px" y="0px"
	 viewBox="0 0 61.3 61.3" style="enable-background:new 0 0 61.3 61.3;" xml:space="preserve">
<style type="text/css">
	.st0{fill:#57F676;}
	.st1{fill-rule:evenodd;clip-rule:evenodd;fill:#FFFFFF;}
</style>
<g id="XMLID_1595_">
	<path id="XMLID_1601_" class="st0" d="M45.8,54.6H15.3c-4.7,0-8.5-3.8-8.5-8.5V15.6c0-4.7,3.8-8.5,8.5-8.5h30.5
		c4.7,0,8.5,3.8,8.5,8.5v30.5C54.2,50.8,50.4,54.6,45.8,54.6z"/>
	<g id="XMLID_1596_">
		<path id="XMLID_1598_" class="st1" d="M43.5,30.2c-0.2-6.9-5.8-12.4-12.8-12.4c-6.9,0-12.5,5.4-12.8,12.1c0,0.2,0,0.4,0,0.6
			c0,2.4,0.7,4.6,1.8,6.5l-2.3,6.8l7.1-2.2c1.8,1,3.9,1.6,6.2,1.6c7.1,0,12.8-5.7,12.8-12.7C43.5,30.4,43.5,30.3,43.5,30.2z
			 M30.8,41.2c-2.2,0-4.2-0.6-5.9-1.8l-4.1,1.3l1.3-4c-1.3-1.8-2-3.9-2-6.2c0-0.3,0-0.7,0.1-1c0.5-5.4,5.1-9.6,10.7-9.6
			c5.6,0,10.3,4.3,10.7,9.8c0,0.3,0,0.6,0,0.8C41.5,36.4,36.7,41.2,30.8,41.2z"/>
		<path id="XMLID_1597_" class="st1" d="M36.6,33.1c-0.3-0.2-1.9-0.9-2.1-1c-0.3-0.1-0.5-0.2-0.7,0.2c-0.2,0.3-0.8,1-1,1.2
			c-0.2,0.2-0.4,0.2-0.7,0.1c-0.3-0.2-1.3-0.5-2.5-1.5c-0.9-0.8-1.6-1.8-1.7-2.1c-0.2-0.3,0-0.5,0.1-0.6c0.1-0.1,0.3-0.4,0.5-0.5
			c0-0.1,0.1-0.1,0.1-0.1c0.1-0.1,0.1-0.2,0.2-0.4c0.1-0.2,0.1-0.4,0-0.5c-0.1-0.2-0.7-1.7-1-2.3c-0.3-0.6-0.5-0.5-0.7-0.5
			c-0.2,0-0.4,0-0.6,0c-0.2,0-0.6,0.1-0.8,0.4c-0.3,0.3-1.1,1.1-1.1,2.6c0,0.4,0.1,0.7,0.2,1.1c0.3,1.1,1,2,1.1,2.2
			c0.2,0.2,2.2,3.4,5.3,4.7c3.2,1.2,3.2,0.8,3.8,0.8c0.6,0,1.9-0.7,2.1-1.5c0.3-0.7,0.3-1.3,0.2-1.5C37.1,33.3,36.9,33.2,36.6,33.1z
			"/>
	</g>
</g>
</svg>
