<?xml version="1.0" encoding="utf-8"?>
<!-- Generator: Adobe Illustrator 21.1.0, SVG Export Plug-In . SVG Version: 6.00 Build 0)  -->
<svg version="1.1" id="Capa_1" xmlns="http://www.w3.org/2000/svg" xmlns:xlink="http://www.w3.org/1999/xlink" x="0px" y="0px"
	 viewBox="0 0 61.3 61.3" style="enable-background:new 0 0 61.3 61.3;" xml:space="preserve">
<style type="text/css">
	.st0{fill:#C3271A;}
	.st1{fill:#FFFFFF;}
</style>
<g id="XMLID_1518_">
	<path id="XMLID_1523_" class="st0" d="M45.8,54.6H15.3c-4.7,0-8.5-3.8-8.5-8.5V15.6c0-4.7,3.8-8.5,8.5-8.5h30.5
		c4.7,0,8.5,3.8,8.5,8.5v30.5C54.2,50.8,50.4,54.6,45.8,54.6z"/>
	<g id="XMLID_1519_">
		<path id="XMLID_1521_" class="st1" d="M48.7,21.6c-0.4-1.6-1.7-2.9-3.4-3.4c-3-0.8-14.8-0.8-14.8-0.8s-11.9,0-14.8,0.8
			c-1.6,0.4-2.9,1.7-3.4,3.4c-0.8,3-0.8,9.2-0.8,9.2s0,6.2,0.8,9.2c0.4,1.6,1.7,2.9,3.4,3.4c3,0.8,14.8,0.8,14.8,0.8
			s11.9,0,14.8-0.8c1.6-0.4,2.9-1.7,3.4-3.4c0.8-3,0.8-9.2,0.8-9.2S49.5,24.6,48.7,21.6z"/>
		<polygon id="XMLID_1520_" class="st0" points="26.6,36.5 26.6,25.2 36.6,30.8 		"/>
	</g>
</g>
</svg>
